<?xml version="1.0" encoding="iso-8859-1"?>
<!-- Uploaded to: SVG Repo, www.svgrepo.com, Generator: SVG Repo Mixer Tools -->
<!DOCTYPE svg PUBLIC "-//W3C//DTD SVG 1.1//EN" "http://www.w3.org/Graphics/SVG/1.1/DTD/svg11.dtd">
<svg fill="#000000" height="800px" width="800px" version="1.1" id="Capa_1" xmlns="http://www.w3.org/2000/svg" xmlns:xlink="http://www.w3.org/1999/xlink" 
	 viewBox="0 0 60 60" xml:space="preserve">
<g>
	<path d="M0,1v38v2v14h2v4h8v-4h40v4h8v-4h2V41v-2V1H0z M58,53h-8H10H2V41h56V53z M50,6h4c0.553,0,1,0.447,1,1s-0.447,1-1,1h-4
		c-0.553,0-1-0.447-1-1S49.447,6,50,6z M47,10h8c0.553,0,1,0.447,1,1s-0.447,1-1,1h-8c-0.553,0-1-0.447-1-1S46.447,10,47,10z M55,15
		c0,0.553-0.447,1-1,1h-4c-0.553,0-1-0.447-1-1s0.447-1,1-1h4C54.553,14,55,14.447,55,15z M30.126,26.515
		c0.174-0.313,0.501-0.509,0.859-0.515c0.349-0.002,0.69,0.182,0.874,0.488l1.688,2.837l3.474-16.531C37.119,12.33,37.528,12,38,12
		c0.008,0,0.017,0,0.025,0c0.482,0.013,0.887,0.367,0.962,0.844L41.854,31H53c0.553,0,1,0.447,1,1s-0.447,1-1,1H41
		c-0.492,0-0.911-0.358-0.987-0.844L37.86,18.527l-2.882,13.717c-0.085,0.402-0.408,0.713-0.814,0.78
		c-0.402,0.064-0.813-0.121-1.023-0.475l-2.11-3.545l-4.156,7.48C26.697,36.805,26.361,37,26,37c-0.021,0-0.042-0.001-0.063-0.002
		c-0.385-0.024-0.722-0.269-0.865-0.627l-5.13-12.825l-4.031,8.868C15.748,32.771,15.393,33,15,33H7c-0.553,0-1-0.447-1-1
		s0.447-1,1-1h7.356l4.733-10.414c0.165-0.364,0.526-0.576,0.934-0.586c0.4,0.01,0.756,0.257,0.905,0.629l5.219,13.047
		L30.126,26.515z M5.03,9.478C5.285,6.922,7.28,5,9.685,5C11.031,5,12.187,5.702,13,6.626C13.813,5.702,14.969,5,16.315,5
		c2.404,0,4.399,1.922,4.654,4.478c0.033,0.217,0.086,0.822-0.14,1.732c-0.34,1.368-1.118,2.605-2.25,3.581l-5.142,4.4L13,19.216
		h-0.36l-0.348-0.255l-4.87-4.168c-1.135-0.979-1.912-2.217-2.252-3.582C4.944,10.3,4.997,9.694,5.03,9.478z"/>
	<path d="M37,52h4V42h-4c-0.553,0-1,0.447-1,1v8C36,51.553,36.447,52,37,52z"/>
	<path d="M52,51v-8c0-0.553-0.447-1-1-1h-8v10h8C51.553,52,52,51.553,52,51z"/>
	<path d="M12,52c2.414,0,4.434-1.721,4.899-4H12c-0.553,0-1-0.447-1-1s0.447-1,1-1h4.899c-0.465-2.279-2.484-4-4.899-4
		c-2.757,0-5,2.243-5,5S9.243,52,12,52z"/>
	<path d="M26,52c1.336,0,2.592-0.521,3.535-1.465C30.479,49.592,31,48.336,31,47s-0.521-2.592-1.465-3.535
		c-0.703-0.704-1.581-1.171-2.535-1.364V47c0,0.553-0.447,1-1,1s-1-0.447-1-1v-4.899c-0.954,0.193-1.832,0.66-2.535,1.364
		C21.521,44.408,21,45.664,21,47s0.521,2.592,1.465,3.535C23.408,51.479,24.664,52,26,52z"/>
</g>
</svg>