<?xml version="1.0" encoding="iso-8859-1"?>
<!-- Uploaded to: SVG Repo, www.svgrepo.com, Generator: SVG Repo Mixer Tools -->
<!DOCTYPE svg PUBLIC "-//W3C//DTD SVG 1.1//EN" "http://www.w3.org/Graphics/SVG/1.1/DTD/svg11.dtd">
<svg fill="#000000" height="800px" width="800px" version="1.1" id="Capa_1" xmlns="http://www.w3.org/2000/svg" xmlns:xlink="http://www.w3.org/1999/xlink" 
	 viewBox="0 0 60 60" xml:space="preserve">
<g>
	<path d="M35.5,52c-2.206,0-4,1.794-4,4c0,1.103-0.897,2-2,2c-0.737,0-1.375-0.405-1.722-1H28.5c0.553,0,1-0.448,1-1v-2
		c0.553,0,1-0.448,1-1v-8.382l-8,4V53c0,0.552,0.447,1,1,1v2c0,0.552,0.447,1,1,1h1.142c0.447,1.72,1.999,3,3.858,3
		c2.206,0,4-1.794,4-4c0-1.103,0.897-2,2-2s2,0.897,2,2v3c0,0.552,0.447,1,1,1s1-0.448,1-1v-3C39.5,53.794,37.706,52,35.5,52z"/>
	<path d="M46.5,2h-2V1c0-0.552-0.447-1-1-1h-7v4c0,0.552-0.447,1-1,1s-1-0.448-1-1V0h-6v14h0.646
		C24.905,18.811,22.5,25.113,22.5,31.605v2.777l8.263-4.131c0.762-5.212,3.166-10.022,6.959-13.815L40.156,14H43.5
		c0.553,0,1-0.448,1-1v-1h2c0.553,0,1-0.448,1-1V3C47.5,2.448,47.053,2,46.5,2z M35.5,9c0.553,0,1,0.448,1,1v2h-2v-2
		C34.5,9.448,34.947,9,35.5,9z"/>
	<polygon points="22.5,46.382 30.5,42.382 30.5,38.618 22.5,42.618 	"/>
	<path d="M30.5,33.87c0-0.424,0.011-0.847,0.033-1.268L22.5,36.618v3.764l8-4V33.87z"/>
	<path d="M26.5,14V0c-3.519,0-6.432,2.613-6.92,6h-3.358c-0.347-0.595-0.985-1-1.722-1c-1.103,0-2,0.897-2,2s0.897,2,2,2
		c0.737,0,1.375-0.405,1.722-1h3.358C20.068,11.387,22.981,14,26.5,14z"/>
</g>
</svg>