<?xml version="1.0" encoding="iso-8859-1"?>
<!-- Uploaded to: SVG Repo, www.svgrepo.com, Generator: SVG Repo Mixer Tools -->
<!DOCTYPE svg PUBLIC "-//W3C//DTD SVG 1.1//EN" "http://www.w3.org/Graphics/SVG/1.1/DTD/svg11.dtd">
<svg fill="#000000" height="800px" width="800px" version="1.1" id="Capa_1" xmlns="http://www.w3.org/2000/svg" xmlns:xlink="http://www.w3.org/1999/xlink" 
	 viewBox="0 0 60 60" xml:space="preserve">
<g>
	<path d="M27,27c0-0.553,0.447-1,1-1h1.994c-0.017-0.732-0.1-1.443-0.277-2.115c-0.212-0.804-0.881-1.602-1.882-2.247
		c-1.19-0.768-3.032-0.832-4.597-0.185c-0.111,0.049-0.179,0.077-0.246,0.101c-0.089,0.031-0.145,0.053-0.212,0.079l-1.493,2.24
		L24.414,27l-2.707,2.707l-1.414-1.414L21.586,27l-2.873-2.873l1.706-2.558c-0.799-0.221-1.805-0.453-2.712-0.453
		c-0.447,0-0.834,0.057-1.147,0.168c-2.16,0.768-2.8,3.41-2.48,5.54l0.2,1.369c0.468,3.222,0.951,6.554,2.159,9.481l0.045,0.111
		c0.078,0.19,0.269,0.653,0.454,0.969c0.101-0.163,0.197-0.385,0.312-0.679c0.147-0.38,0.277-0.765,0.408-1.148
		c0.353-1.041,0.718-2.117,1.399-3.117c1.313-1.925,3.271-2.542,4.951-1.539c1.486,0.889,1.908,2.513,2.248,3.817
		c0.083,0.318,0.164,0.632,0.259,0.927c0.312,0.959,0.55,1.458,0.709,1.717c0.013-0.021,0.026-0.044,0.04-0.067
		c0.612-1.076,0.884-2.316,1.171-3.63l0.106-0.481c0.118-0.53,0.249-1.076,0.383-1.636c0.379-1.578,0.777-3.268,0.963-4.917H28
		C27.447,28,27,27.553,27,27z"/>
	<path d="M0,3v54h60V3H0z M49,8h1c0.553,0,1,0.447,1,1s-0.447,1-1,1h-1c-0.553,0-1-0.447-1-1S48.447,8,49,8z M49,12h1
		c0.553,0,1,0.447,1,1s-0.447,1-1,1h-1c-0.553,0-1-0.447-1-1S48.447,12,49,12z M45,8h1c0.553,0,1,0.447,1,1s-0.447,1-1,1h-1
		c-0.553,0-1-0.447-1-1S44.447,8,45,8z M45,12h1c0.553,0,1,0.447,1,1s-0.447,1-1,1h-1c-0.553,0-1-0.447-1-1S44.447,12,45,12z M6,8h9
		c0.553,0,1,0.447,1,1s-0.447,1-1,1H6c-0.553,0-1-0.447-1-1S5.447,8,6,8z M6,12h17c0.553,0,1,0.447,1,1s-0.447,1-1,1H6
		c-0.553,0-1-0.447-1-1S5.447,12,6,12z M6,46h1c0.553,0,1,0.447,1,1s-0.447,1-1,1H6c-0.553,0-1-0.447-1-1S5.447,46,6,46z M10,52H6
		c-0.553,0-1-0.447-1-1s0.447-1,1-1h4c0.553,0,1,0.447,1,1S10.553,52,10,52z M11,48h-1c-0.553,0-1-0.447-1-1s0.447-1,1-1h1
		c0.553,0,1,0.447,1,1S11.553,48,11,48z M15.71,51.71C15.52,51.899,15.26,52,15,52s-0.521-0.101-0.71-0.29
		C14.109,51.52,14,51.26,14,51s0.109-0.521,0.29-0.71c0.37-0.37,1.05-0.37,1.42,0C15.89,50.479,16,50.74,16,51
		S15.89,51.52,15.71,51.71z M15,48h-1c-0.553,0-1-0.447-1-1s0.447-1,1-1h1c0.553,0,1,0.447,1,1S15.553,48,15,48z M38,36h-1
		c-0.553,0-1-0.447-1-1s0.447-1,1-1h1c0.553,0,1,0.447,1,1S38.553,36,38,36z M42,36h-1c-0.553,0-1-0.447-1-1s0.447-1,1-1h1
		c0.553,0,1,0.447,1,1S42.553,36,42,36z M40,32c-2.414,0-4.434-1.721-4.899-4h-3.202c-0.187,1.833-0.619,3.67-1.03,5.384
		c-0.132,0.549-0.261,1.085-0.377,1.604l-0.104,0.474c-0.307,1.401-0.624,2.85-1.387,4.19c-0.486,0.855-1.082,1.289-1.771,1.289
		c-1.359,0-2.063-1.591-2.619-3.311c-0.107-0.331-0.199-0.683-0.292-1.04c-0.286-1.099-0.556-2.136-1.339-2.604
		c-0.228-0.136-0.442-0.202-0.656-0.202c-0.521,0-1.125,0.431-1.616,1.151c-0.527,0.774-0.834,1.677-1.158,2.633
		c-0.14,0.411-0.28,0.823-0.438,1.23c-0.257,0.66-0.645,1.656-1.735,2.12L17.19,41h-0.204c-1.346,0-1.977-1.537-2.353-2.456
		l-0.044-0.105c-1.304-3.159-1.805-6.616-2.29-9.959l-0.199-1.359c-0.451-3.013,0.545-6.568,3.789-7.722
		c0.529-0.188,1.141-0.283,1.817-0.283c1.321,0,2.681,0.352,3.718,0.658c0.194,0.058,0.312,0.097,0.405,0.108
		c-0.05-0.006,0.004-0.029,0.076-0.058c0.112-0.044,0.249-0.097,0.428-0.159l0.136-0.059c2.168-0.897,4.71-0.771,6.449,0.35
		c1.422,0.917,2.392,2.131,2.731,3.419c0.225,0.852,0.323,1.733,0.341,2.625h3.109c0.465-2.279,2.484-4,4.899-4c2.757,0,5,2.243,5,5
		S42.757,32,40,32z M54,52h-4c-0.553,0-1-0.447-1-1s0.447-1,1-1h4c0.553,0,1,0.447,1,1S54.553,52,54,52z M54,48h-8
		c-0.553,0-1-0.447-1-1s0.447-1,1-1h8c0.553,0,1,0.447,1,1S54.553,48,54,48z M54,44h-4c-0.553,0-1-0.447-1-1s0.447-1,1-1h4
		c0.553,0,1,0.447,1,1S54.553,44,54,44z M54,14h-1c-0.553,0-1-0.447-1-1s0.447-1,1-1h1c0.553,0,1,0.447,1,1S54.553,14,54,14z M54,10
		h-1c-0.553,0-1-0.447-1-1s0.447-1,1-1h1c0.553,0,1,0.447,1,1S54.553,10,54,10z"/>
</g>
</svg>